<svg viewBox="0 0 400 300" fill="none" xmlns="http://www.w3.org/2000/svg"><path d="M170.872 246.652c-.224.546-.7 1.358-1.036 1.848l.7.336a23.26 23.26 0 0 0 1.246-1.806l-.91-.378Zm-3.234 1.848c-.14-.49-.518-1.232-.91-1.792l-.784.322c.378.574.742 1.344.868 1.834l.826-.364Zm6.132 1.414h2.436c-.252 1.736-.63 3.22-1.232 4.466-.56-1.302-.952-2.814-1.218-4.424l.014-.042Zm-3.822 4.746c-.182.756-.462 1.372-.882 1.876a25.17 25.17 0 0 0-1.666-.742c.182-.364.392-.742.588-1.134h1.96Zm8.176-4.746v-.98h-4.06c.196-.77.378-1.582.518-2.408l-1.064-.154c-.378 2.464-1.106 4.802-2.282 6.272.238.168.686.518.84.714a9.133 9.133 0 0 0 1.022-1.75c.322 1.428.728 2.73 1.26 3.864-.686 1.05-1.61 1.89-2.8 2.548a14.1 14.1 0 0 0-1.61-1.022c.476-.63.798-1.4.994-2.338h1.218v-.868h-3.738c.168-.336.322-.672.476-.98l-.238-.056h.602v-2.086c.672.504 1.554 1.176 1.918 1.512l.574-.742c-.378-.28-1.89-1.232-2.492-1.582v-.07h2.842v-.854h-2.842v-2.562h-.966v2.562h-2.87v.854h2.59c-.686.91-1.75 1.778-2.744 2.226.196.182.448.546.574.784.854-.462 1.75-1.232 2.45-2.058v1.932l-.364-.084c-.168.378-.364.784-.574 1.204h-2.016v.868h1.582a53.175 53.175 0 0 1-1.064 1.974l.896.322.224-.392c.462.196.924.42 1.372.644-.714.518-1.694.868-2.982 1.092.196.196.406.574.476.854 1.498-.322 2.604-.784 3.416-1.456.644.378 1.204.756 1.638 1.106l.322-.336c.182.238.364.546.448.728 1.372-.7 2.422-1.596 3.248-2.688.686 1.12 1.54 2.016 2.618 2.646.14-.28.476-.686.714-.882-1.12-.588-2.002-1.54-2.702-2.744.854-1.498 1.386-3.346 1.736-5.614h.84Zm5.558 3.5-.14-.952-1.456.462v-2.772h1.582v-.966h-1.582v-2.8h-.966v2.8h-1.736v.966h1.736v3.066c-.728.21-1.386.406-1.904.56l.252.994c.504-.154 1.064-.322 1.652-.518v3.598c0 .21-.07.266-.238.266-.154 0-.714 0-1.316-.014.14.294.266.714.308.966.882.014 1.414-.028 1.736-.196.35-.168.476-.434.476-1.008v-3.934l1.596-.518Zm1.596-1.288c.014-.336.014-.63.014-.938v-.602h2.702v1.54h-2.716Zm5.348-4.228v1.778h-5.334v-1.778h5.334Zm.098 9.842h-4.298v-2.114h4.298v2.114Zm1.372-4.718v-.896h-3.108v-1.54h2.632v-3.598h-7.336v4.2c0 2.212-.126 5.25-1.568 7.392.238.098.672.392.84.588 1.176-1.722 1.554-4.074 1.68-6.146h2.758v1.722h-2.478v4.438h.91v-.574h4.298v.518h.952v-4.382h-2.688v-1.722h3.108Zm7.504-4.018h-3.094c.014-.798.028-1.61.028-2.436h-1.022c0 .826 0 1.638-.014 2.436h-1.96v1.022h1.932c-.112 3.5-.532 6.594-2.268 8.428.252.154.63.49.784.714 1.89-2.044 2.366-5.39 2.492-9.142h2.114c-.098 5.362-.224 7.266-.546 7.658-.098.196-.238.238-.462.224-.252 0-.854 0-1.498-.056.182.294.28.742.308 1.05.616.042 1.26.042 1.638-.014.42-.042.672-.168.924-.532.434-.602.532-2.632.644-8.82v-.532Zm2.128 7.924v-7.812h2.716v7.812h-2.716Zm-.98-8.82v10.836h.98v-1.022h2.716v.924h1.036v-10.738h-4.732Zm16.296-.994c.63.546 1.372 1.316 1.708 1.834l.784-.546c-.336-.532-1.106-1.274-1.75-1.778l-.742.49Zm-9.562 2.394v.854h12.558v-.854h-12.558Zm.728-2.044v.84h6.16v-.84h-6.16Zm2.674-1.134v3.612h1.008v-3.612h-1.008Zm4.368.028c.042 6.944.84 12.74 3.472 12.74.966 0 1.316-.644 1.484-2.73a2.57 2.57 0 0 1-.826-.546c-.084 1.638-.224 2.254-.574 2.254-1.624 0-2.576-5.04-2.506-11.718h-1.05Zm3.22 4.732c-.826 3.01-2.422 5.852-4.648 7.434.252.196.574.504.742.714 2.31-1.764 3.92-4.69 4.844-7.882l-.938-.266Zm-10.766.672v.868h7.182v-.868h-7.182Zm3.682 1.302v6.09h.994v-6.09h-.994Zm-2.954 2.226c0-.21.644-.518.644-.518v-.028c.756-1.036 1.568-2.562 2.156-4.074l-1.036-.28c-.42 1.386-1.204 2.856-1.442 3.234-.224.392-.434.658-.658.714.14.252.28.742.336.952Zm0 0c.126-.112.532-.196 1.12-.196h5.04l.014-.896h-5.6l-.574.308v.784Zm-.798 1.526.112.966c1.848-.182 4.578-.462 7.168-.728l.014-.882c-2.716.252-5.53.518-7.294.644Zm20.608-3.22v-3.71h4.018v3.71h-4.018Zm-5.082 0v-3.71h4.004v3.71h-4.004Zm5.082-4.732v-2.492h-1.078v2.492h-5.026v6.622h1.022v-.868h4.004v4.536h1.078v-4.536h4.018v.798h1.064v-6.552h-5.082Z" fill="#9BA2AD"/><path d="M213.73 69.41c5.357 0 9.7-4.343 9.7-9.7 0-5.357-4.343-9.7-9.7-9.7-5.357 0-9.7 4.343-9.7 9.7 0 5.357 4.343 9.7 9.7 9.7Z" stroke="#26417F" stroke-width=".25" stroke-miterlimit="10"/><path d="M223 56.81c-5.24-1-5-4.13-5-4.13" stroke="#26417F" stroke-width=".25" stroke-miterlimit="10"/><path d="M218.27 51.14s-.8 7.39-6.83 7.2c-2.83-1.52-4.37 2.71-1.28 4.1-.66 2.36-4 2.32-5 1.71M230 110.49l.5-16.18 3.63-2.88s-.34-20-20.4-18.77c-21.45 1.34-24.58 26.92-24.58 26.92s11.51-9.92 18.41 0l4.08-11.51" stroke="#26417F" stroke-width=".25" stroke-miterlimit="10"/><path d="m205.6 97.36-1.82 11.76 16.34 2.7s6.39-4.63 7.37-5.23c.98-.6 3.06.42 1.36 2.34a12.562 12.562 0 0 1-3.39 2.14c-.63.32 5.78-.85 7.24-.93 1.46-.26 2.27 2.53.3 2.79a64.591 64.591 0 0 1-8.36.86" stroke="#26417F" stroke-width=".25" stroke-miterlimit="10"/><path d="M233 112.93c2.29-.6 3.73 2.52.4 2.84-3.44.47-10.43.9-10.43.9" stroke="#26417F" stroke-width=".25" stroke-miterlimit="10"/><path d="M231.93 115.94c2.44-.26 2.9 2.42-.34 2.81-3.53.34-7.11.38-7.11.38" stroke="#26417F" stroke-width=".25" stroke-miterlimit="10"/><path d="M229.57 118.92c2.25-.4 2.9 2.29-.39 2.25-3.61.17-7.73.08-7.73.08-9.07-.42-9-.42-11.29-.42-20.32-.83-22.16-2.57-22.16-10.07a54.156 54.156 0 0 1 3.12-12.63M233.42 92l1.51 6.48 10.75-12.58s-.66-7.87-.67-9c-.01-1.13 1.94-2.4 2.71 0 .241 1.32.264 2.672.07 4 0 .71 2.27-5.38 3-6.67.53-1.39 3.34-.63 2.55 1.18A64.967 64.967 0 0 1 249.7 83" stroke="#26417F" stroke-width=".25" stroke-miterlimit="10"/><path d="M253.29 75.43c.67-2.27 4.09-1.89 2.63 1.12-1.37 3.2-4.61 9.4-4.61 9.4" stroke="#26417F" stroke-width=".25" stroke-miterlimit="10"/><path d="M255.31 77.9c1-2.22 3.57-1.23 2.23 1.75-1.54 3.2-3.35 6.28-3.35 6.28" stroke="#26417F" stroke-width=".25" stroke-miterlimit="10"/><path d="M256.64 81.46c.82-2.13 3.46-1.29 1.72 1.5-1.72 3.18-3.92 6.66-3.92 6.66-5.05 7.55-5 7.46-6.2 9.45-6.31 9.58-9.84 14-12.88 15.26M198.74 120.05s-2.69 6.8-1.09 7.51c1.6.71 34 .35 33.81-2.48a40.33 40.33 0 0 0-.45-4.36" stroke="#26417F" stroke-width=".25" stroke-miterlimit="10"/><path d="M197.65 127.56S204.6 150 218 153.68l19.37 11.77 11.33 43.48 27.61-1s-10.17-37.13-20-54.86A143.036 143.036 0 0 0 227 126.68" stroke="#26417F" stroke-width=".25" stroke-miterlimit="10"/><path d="M219.79 154.8 213 185.71l-47.55 28.62-.67-25.11 27.86-11.89s7.4-38.49 7.61-43.18M268.86 208.09l.19 3.72L279 217s7.58.1 7.56 2.79c-.02 2.69.16 3.31.16 3.31l-34.81 1.72-.6-12.09 17.76-.88M251.09 208.79l.2 3.9" stroke="#26417F" stroke-width=".25" stroke-miterlimit="10"/><path d="m165.43 209.61-3.9.12-5.34 9.83s-.25 7.58-2.93 7.5l-3.31.11-1.07-34.84L161 192l.55 17.77M164.88 191.84l-3.9.12" stroke="#26417F" stroke-width=".25" stroke-miterlimit="10"/><path d="m286.66 219.75.17 3.43h-.12l-34.95 1.73v-.13l-.6-12.09h.25v-.13l17.52-.86-.17-3.38h.24l.17 3.43 9.83 5.1c.6 0 7.68.15 7.66 2.9Zm-.09 3.19-.16-3.18c0-2.54-7.36-2.67-7.44-2.67h-.05l-9.9-5.14-17.6.87.58 11.84 34.57-1.72Z" fill="#26417F"/><path d="m286.41 219.76.16 3.18-34.57 1.71-.58-11.84 17.6-.87 9.9 5.14h.08c.05.01 7.43.14 7.41 2.68Z" fill="#FBC623"/><path d="M276.38 207.89v.15h-.16l-7.26.26v-.22h-.25v.22l-17.52.64v-.17H251v.23l-2.43.09v-.1l-11.37-43.45L219.87 155v-.17l-.25-.06v.09l-1.74-1.06c-8.44-2.36-14.36-12.25-17.57-19.18v-.46h-.25a61.458 61.458 0 0 1-2.56-6.48l.25.06c.76 2.32 7.71 22.36 20.14 25.82l19.41 11.8v.05l11.31 43.37 27.35-1c-.72-2.62-10.55-37.75-19.92-54.69A145.137 145.137 0 0 0 227 126.81h.36A144.348 144.348 0 0 1 256.37 153c9.72 17.54 19.9 54.52 20.01 54.89Z" fill="#26417F"/><path d="m276.09 207.81-27.35 1-11.31-43.37v-.05L218 153.58c-12.43-3.46-19.38-23.5-20.14-25.82 2.326.231 4.663.318 7 .26 2.65 0 5.76 0 8.86-.16 3.1-.16 9.1-.4 13.29-1a145.159 145.159 0 0 1 29.22 26.31c9.31 16.89 19.14 52.02 19.86 54.64Z" fill="#E0E2E3"/><path d="m268.99 208.09.01.22-.25.01-.01-.22.25-.01Z" fill="#26417F"/><path d="m268.75 208.32.17 3.38-17.52.86-.17-3.6 17.52-.64Z" fill="#FFDFD4"/><path d="M258.88 80.61a2.377 2.377 0 0 1-.42 2.42c-1.69 3.14-3.89 6.63-3.92 6.66l-.68 1c-4.37 6.54-4.37 6.54-5.51 8.43-6.58 10-9.95 14-12.88 15.28a.57.57 0 0 0 0-.26c2.86-1.31 6.2-5.32 12.67-15.15 1.15-1.89 1.15-1.89 5.53-8.43l.67-1s2.22-3.51 3.92-6.65c.8-1.29.56-2 .42-2.17a.687.687 0 0 0-.71-.34 1.321 1.321 0 0 0-.97.6l.32-.65c.18-.12.385-.196.6-.22a1 1 0 0 1 .96.48Z" fill="#26417F"/><path d="M258.67 80.74c.14.22.38.88-.42 2.17-1.7 3.14-3.9 6.62-3.92 6.65l-.67 1c-4.38 6.54-4.38 6.54-5.53 8.43-6.47 9.83-9.81 13.84-12.67 15.15a1.467 1.467 0 0 0-.37-.76 2.006 2.006 0 0 0-1.28-.65 1.23 1.23 0 0 0 .38-.52 1.809 1.809 0 0 0-.31-1.72 1.267 1.267 0 0 0-1.19-.48c-.47 0-1.46.16-2.56.33l.49-16 2.73-2.16 1.45 6.29.06.24L245.77 86v-.05c0-.08-.66-7.87-.67-9a1.343 1.343 0 0 1 1.06-1.22c.61-.09 1.11.39 1.4 1.31a10.57 10.57 0 0 1 .11 3.57V81c0 .1.06.17.1.18.04.01.2.06 1.57-3.29.6-1.44 1.21-2.94 1.51-3.52a.997.997 0 0 1 .84-.62 1.569 1.569 0 0 1 1.4.53 1 1 0 0 1 .18.91 2.476 2.476 0 0 0-.1.29 64.871 64.871 0 0 1-3.58 7.52l.22.12a64.288 64.288 0 0 0 3.59-7.62 1.822 1.822 0 0 1 1.39-1.34 1.111 1.111 0 0 1 1.13.37 2 2 0 0 1-.13 2c-.17.4-.38.86-.61 1.34-1.52 3.3-4 8-4 8.05l.22.11c0-.05 2.49-4.75 4-8.05.47-1 1.23-1.26 1.74-1s.91 1.23.25 2.7c-.22.46-.45.91-.67 1.36-.086.12-.154.25-.2.39a.165.165 0 0 0 0 .07c-1.25 2.43-2.42 4.43-2.44 4.45l.21.13s1.2-2 2.46-4.49c.08-.14.15-.29.23-.44a1.32 1.32 0 0 1 .95-.62.69.69 0 0 1 .74.21Z" fill="#FFDFD4"/><path d="M257.28 76.68c.72.32 1.11 1.38.37 3l-.32.66c-.233.15-.428.352-.57.59.22-.45.45-.9.67-1.36.66-1.47.33-2.43-.25-2.7-.58-.27-1.27 0-1.74 1 .16-.34.31-.67.44-1a1.311 1.311 0 0 1 1.4-.19Z" fill="#26417F"/><path d="M257.33 80.37 257 81c-.093.138-.17.285-.23.44l-.23-.09a.165.165 0 0 1 0-.07l.2-.39c.156-.215.357-.392.59-.52Z" fill="#26417F"/><path d="M256.75 81.51c.06-.155.137-.302.23-.44-.08.15-.15.3-.23.44ZM256.76 81l-.2.39c.046-.14.114-.271.2-.39ZM256.52 81.42l.23.09C255.49 84 254.31 86 254.29 86l-.21-.13s1.19-2.02 2.44-4.45ZM256.13 74.34c.23.3.52 1-.1 2.27l-.15.34a2.524 2.524 0 0 0-.68.9c.23-.48.44-.94.61-1.34a2 2 0 0 0 .13-2 1.11 1.11 0 0 0-1.13-.37 1.816 1.816 0 0 0-1.39 1.34 1.58 1.58 0 0 0 .14-.81c.292-.401.724-.68 1.21-.78a1.381 1.381 0 0 1 1.36.45Z" fill="#26417F"/><path d="M255.88 77c-.13.3-.28.63-.44 1l-.22-.11c.152-.342.377-.646.66-.89Z" fill="#26417F"/><path d="m255.2 77.85.22.11c-1.52 3.3-4 8-4 8.05l-.22-.11c0-.05 2.48-4.75 4-8.05ZM253.54 74.66a1.58 1.58 0 0 1-.14.81l-.23-.07a2.016 2.016 0 0 1 .37-.74Z" fill="#26417F"/><path d="M253.4 75.47a64.288 64.288 0 0 1-3.59 7.62l-.22-.12a64.821 64.821 0 0 0 3.58-7.58l.23.08ZM253.29 74.05c.134.178.221.389.25.61-.109.137-.2.289-.27.45a1 1 0 0 0-.18-.91 1.57 1.57 0 0 0-1.4-.53 1 1 0 0 0-.84.62c-.3.58-.91 2.08-1.51 3.52-1.37 3.35-1.4 3.33-1.57 3.29-.17-.04-.11 0-.1-.18.01-.18 0-.23 0-.39a10.57 10.57 0 0 0-.11-3.57c-.29-.92-.79-1.4-1.4-1.31a1.345 1.345 0 0 0-1.06 1.22c0 1.14.66 8.93.67 9v.05l-10.91 12.83-.06-.24-1.45-6.29.21-.17 1.44 6.16 10.56-12.36c-.06-.74-.66-7.87-.67-9a1.594 1.594 0 0 1 1.28-1.47c.34-.05 1.2 0 1.67 1.49.245 1.174.289 2.381.13 3.57.27-.6.73-1.72 1.15-2.74.6-1.45 1.21-3 1.52-3.53a1.22 1.22 0 0 1 1-.76 1.792 1.792 0 0 1 1.65.64ZM251.4 212.56l.01.13-.25.01-.01-.12.13-.01.12-.01Z" fill="#26417F"/><path d="m251.23 208.96.17 3.6-.12.01-.13.01-.17-3.61.25-.01Z" fill="#26417F"/><path d="m251.22 208.79.01.17-.25.01-.01-.17.25-.01ZM235.46 114.16a.6.6 0 0 1 0 .26h-.06l-.1-.23.16-.03Z" fill="#26417F"/><path d="M235.41 114.45h.06c.001.13-.022.259-.07.38-.14.35-.58 1-2 1.09h-.37a2.24 2.24 0 0 0-1-.13c.5 0 1-.1 1.37-.16 1-.09 1.59-.42 1.79-.94a1.115 1.115 0 0 0-.27-1.16 1.782 1.782 0 0 0-1.67-.53c.21-.052.408-.147.58-.28.492.051.948.283 1.28.65.195.212.324.476.37.76l-.15.06.08.26Z" fill="#26417F"/><path d="M234.9 113.55a1.108 1.108 0 0 1 .27 1.16c-.2.52-.84.85-1.79.94-.41.06-.87.11-1.37.16h-.09c-3.61.4-8.9.73-9 .73v.25c.06 0 5.36-.34 9-.74 1.1-.12 1.74.39 1.81 1 .07.61-.58 1.41-2.19 1.6l-1.56.13h-.34c-2.75.19-5.12.22-5.14.22v.25s2.37 0 5.11-.22h.51a1.383 1.383 0 0 1 1.07.5.736.736 0 0 1 .08.79c-.12.23-.55.76-2 .76h-.08c-3.56.16-7.68.08-7.72.08l-1.29-.06c-7.67-.36-7.79-.36-9.9-.36h-.1c-20.12-.78-22-2.46-22-9.93a55.02 55.02 0 0 1 3.08-12.55c2.21-1.42 6-3.33 9.67-2.86a8.506 8.506 0 0 1 4.56 2l-1.8 11.69v.12l16.4 2.79h.06c.06-.05 6.4-4.63 7.37-5.23a1.32 1.32 0 0 1 1.59.28c.39.46.24 1.14-.4 1.87a10.546 10.546 0 0 1-3 1.94l-.34.17a.153.153 0 0 0-.086.076.156.156 0 0 0-.014.114c0 .16 0 .19 3.63-.36 1.54-.24 3.14-.49 3.79-.53a.998.998 0 0 1 1 .4 1.565 1.565 0 0 1 .28 1.47 1.116 1.116 0 0 1-1 .68 64.62 64.62 0 0 1-8.34.86v.25a65.43 65.43 0 0 0 8.38-.86h.2a1.771 1.771 0 0 1 1.69.42Z" fill="#FFDFD4"/><path d="M233.88 110.5c.193.237.322.519.376.82.055.301.032.61-.066.9a1.228 1.228 0 0 1-.38.52 2.477 2.477 0 0 0-.84.07 1.12 1.12 0 0 0 1-.68c.079-.249.095-.514.047-.771a1.575 1.575 0 0 0-.327-.699 1 1 0 0 0-1-.4c-.65 0-2.25.29-3.79.53-3.58.55-3.58.52-3.63.36a.156.156 0 0 1 .014-.114.16.16 0 0 1 .086-.076l.34-.17a10.525 10.525 0 0 0 3-1.94c.64-.73.79-1.41.4-1.87a1.323 1.323 0 0 0-1.59-.28c-1 .6-7.31 5.18-7.37 5.23h-.06l-16.45-2.72v-.12l1.8-11.69.23.19-1.75 11.41 16.16 2.67c.61-.43 6.4-4.62 7.35-5.2a1.558 1.558 0 0 1 1.91.33c.23.26.64 1-.4 2.2a10.676 10.676 0 0 1-3 2c.65-.08 1.85-.26 2.94-.43l1-.16v.11h.25v-.15c1.1-.17 2.09-.31 2.56-.33a1.263 1.263 0 0 1 1.19.46Z" fill="#26417F"/><path d="M234.25 91.43v.07l-.69.55v-.08h-.24v.2l-2.73 2.16-.49 16h-.25l.49-16.13 3.66-2.82c0-.8-.48-9.06-6.13-14.28-3.48-3.22-8.23-4.67-14.13-4.31-11 .67-17.09 7.92-20.24 13.88a42.925 42.925 0 0 0-4.19 12.61c.31-.25.91-.69 1.7-1.2l-.14.37c-.571.378-1.121.785-1.65 1.22l-.25.21v-.32a42.68 42.68 0 0 1 4.26-13c3.18-6 9.3-13.34 20.44-14 6-.37 10.79 1.11 14.32 4.38 6.01 5.52 6.26 14.41 6.26 14.49ZM234 117c.09.78-.61 1.66-2.4 1.88l-.73.07a1.818 1.818 0 0 0-.86-.19l1.56-.13c1.61-.19 2.26-1 2.19-1.6-.07-.6-.71-1.08-1.81-1l1.09-.12A1.322 1.322 0 0 1 234 117Z" fill="#26417F"/><path d="m234 91.38-3.58 2.84-.49 16.13-1 .16c-1.09.17-2.29.35-2.94.43a10.655 10.655 0 0 0 3-2c1-1.18.63-1.94.4-2.2a1.565 1.565 0 0 0-.898-.498c-.346-.059-.703 0-1.012.168-1 .58-6.74 4.77-7.35 5.2L203.92 109l1.77-11.41a12.744 12.744 0 0 1 1.77 2l.14.2 4.15-11.74-.23-.08-4 11.28a9.505 9.505 0 0 0-6.59-4.19c-3.82-.48-7.68 1.5-9.93 3-.79.51-1.39 1-1.7 1.2a42.896 42.896 0 0 1 4.19-12.61c3.15-6 9.21-13.21 20.24-13.88 5.9-.36 10.65 1.09 14.13 4.31 5.66 5.24 6.14 13.5 6.14 14.3Z" fill="#61D3BA"/><path d="M233 112.81c.274-.071.558-.095.84-.07a1.555 1.555 0 0 1-.58.28h-.2l-.06-.21ZM233.54 91.97l.02.08-.21.17-.05-.2.24-.05Z" fill="#26417F"/><path d="m233 112.81.06.25a65.252 65.252 0 0 1-8.38.86v-.25a64.508 64.508 0 0 0 8.32-.86ZM232 115.81a2.24 2.24 0 0 1 1 .13l-1.09.12v-.24l.09-.01Z" fill="#26417F"/><path d="M231.92 115.82v.24c-3.61.4-8.91.74-9 .74v-.25c.08 0 5.39-.33 9-.73ZM231.58 125.08a.739.739 0 0 1-.39.61 11.309 11.309 0 0 1-3.88 1.07l-.27-.18-.13.21c-4.19.63-10.18.91-13.29 1-3.11.09-6.21.16-8.86.16a56.615 56.615 0 0 1-7-.26c-.05-.13-.08-.21-.08-.22l-.23.08v.06c-1.48-.78.55-6.3 1-7.49h.25c-.75 1.93-2.31 6.72-1.11 7.25.67.3 7.94.43 16 .14 9.62-.35 16-1.12 17.4-2.11.19-.13.29-.26.28-.39-.13-2.24-.33-3.67-.41-4.15.082-.045.159-.099.23-.16.241 1.45.405 2.912.49 4.38Z" fill="#26417F"/><path d="M231.37 119.35a1.004 1.004 0 0 1 .1 1.05 1.14 1.14 0 0 1-.32.38v-.08h-.24v.19a3.415 3.415 0 0 1-1.67.36h-.08c-1.82.08-3.79.1-5.28.1h-2.45l-1.29-.06c-7.79-.36-7.79-.36-10-.36-4.7-.18-8.41-.42-11.35-.76v-.1l-.23-.09a.936.936 0 0 0-.06.16c-9.55-1.15-10.66-3.54-10.66-9.4a55.835 55.835 0 0 1 3-12.31l.35-.23a55.012 55.012 0 0 0-3.08 12.55c0 7.47 1.89 9.15 22 9.93h.1c2.11 0 2.23 0 9.9.36l1.29.06s4.16.08 7.72-.08h.08c1.45 0 1.88-.53 2-.76a.74.74 0 0 0-.08-.79 1.383 1.383 0 0 0-1.07-.5h.77c.215.073.406.204.55.38Z" fill="#26417F"/><path d="M231.33 125.09c0 .13-.09.26-.28.39-1.43 1-7.78 1.76-17.4 2.11-8 .29-15.28.16-16-.14-1.2-.53.36-5.32 1.11-7.25 2.94.34 6.65.58 11.35.76 2.2 0 2.2 0 10 .36l1.29.06h2.45c1.45 0 3.46 0 5.28-.1h.08c.578.023 1.153-.1 1.67-.36.12.5.32 1.93.45 4.17Z" fill="#61D3BA"/><path d="M231.13 120.7v.08a1.351 1.351 0 0 1-.23.16v-.19l.23-.05ZM230.87 119h-.77a3.102 3.102 0 0 0-.51 0v-.24H230.02c.299.009.591.091.85.24ZM230.13 110.35v.15h-.25v-.11l.25-.04Z" fill="#26417F"/><path d="M229.59 119c.17-.014.34-.014.51 0h-.51ZM229.62 118.79h-.07v.24c-2.74.19-5.08.22-5.11.22V119s2.43 0 5.18-.21ZM227.31 126.76h-.36l.13-.21.23.21ZM213.77 49.89a9.82 9.82 0 1 1 0 19.64 9.82 9.82 0 0 1 0-19.64Zm9.53 9.86a9.42 9.42 0 0 0-.41-2.82h.11v-.25h-.21a9.586 9.586 0 0 0-4.44-5.31v-.18h-.24a.339.339 0 0 0 0 .09 9.58 9.58 0 0 0-4.37-1.08 9.58 9.58 0 0 0-8.53 13.92l-.12.22c.107.064.221.114.34.15.428.73.949 1.403 1.55 2a9.484 9.484 0 0 0 6.75 2.83 9.57 9.57 0 0 0 9.57-9.57Z" fill="#26417F"/><path d="M222.89 56.93a9.42 9.42 0 0 1 .41 2.82 9.566 9.566 0 0 1-9.57 9.53 9.48 9.48 0 0 1-6.75-2.83 9.797 9.797 0 0 1-1.55-2 4.34 4.34 0 0 0 1.43.22c.602.008 1.2-.1 1.76-.32a2.76 2.76 0 0 0 1.7-1.83v-.11h-.1a2.548 2.548 0 0 1-1.62-2.1 2.009 2.009 0 0 1 .81-1.83 1.87 1.87 0 0 1 2 .05H211.7c3.81 0 5.51-3 6.23-5.21.18.93 1.12 2.87 4.96 3.61Z" fill="#FFDFD4"/><path d="M223 56.69v.25h-.07l-.09-.28.16.03ZM222.8 56.65l.09.28c-3.84-.74-4.78-2.68-5-3.67.07-.2.13-.39.18-.56 0 .2-.07 2.98 4.73 3.95ZM219.91 154.83l-.04.17-.23-.14.02-.09.25.06Z" fill="#26417F"/><path d="m219.87 155-6.78 30.8-.05.03-47.73 28.72-.01-.22-.12-4.58.25-.01.11 4.37 47.33-28.47 6.77-30.78.23.14Z" fill="#26417F"/><path d="m219.64 154.86-6.77 30.78-47.33 28.47-.11-4.37v-.25l-.53-20.18 27.77-11.86h.06v-.07c.07-.37 7-36.48 7.59-42.73 3.21 6.93 9.13 16.82 17.57 19.18l1.75 1.03Z" fill="#E0E2E3"/><path d="M218.36 51.34a9.594 9.594 0 0 1 4.44 5.31c-4.77-1-4.73-3.75-4.73-3.95.128-.446.225-.9.29-1.36Z" fill="#13286A"/><path d="M218.15 51.13h.24v.18l-.22-.12a.318.318 0 0 1-.02-.06ZM218.14 51.22l.22.12a9.876 9.876 0 0 1-.29 1.35h-.25c.139-.482.246-.973.32-1.47Z" fill="#26417F"/><path d="M218.07 52.69c0 .17-.11.36-.18.56a2.395 2.395 0 0 1-.07-.59l.25.03Z" fill="#26417F"/><path d="M218.14 51.22a11.4 11.4 0 0 1-.32 1.45c-.6 2.09-2.19 5.55-6.16 5.55h-.19a2.102 2.102 0 0 0-2.2 0 2.234 2.234 0 0 0-.93 2.05 2.757 2.757 0 0 0 1.66 2.24 2.547 2.547 0 0 1-1.52 1.57 4.46 4.46 0 0 1-3.29 0 9.58 9.58 0 0 1 8.53-13.92 9.581 9.581 0 0 1 4.42 1.06Z" fill="#13286A"/><path d="M217.82 52.67c-.001.199.023.397.07.59-.72 2.16-2.42 5.21-6.23 5.21H211.37a1.866 1.866 0 0 0-2-.05 1.997 1.997 0 0 0-.81 1.83 2.553 2.553 0 0 0 1.62 2.1h.1v.11a2.758 2.758 0 0 1-1.7 1.83c-.56.22-1.158.328-1.76.32a4.34 4.34 0 0 1-1.43-.22l-.19-.35a4.46 4.46 0 0 0 3.29 0 2.543 2.543 0 0 0 1.51-1.53 2.762 2.762 0 0 1-1.67-2.27c-.041-.394.024-.79.188-1.151.163-.36.419-.67.742-.9a2.102 2.102 0 0 1 2.2 0h.19c3.98.03 5.57-3.43 6.17-5.52ZM211.75 88.11l-4.15 11.74-.14-.2a12.684 12.684 0 0 0-1.77-2v-.23h-.25v.07a8.512 8.512 0 0 0-4.56-2c-3.71-.47-7.46 1.44-9.67 2.86l-.23-.09c2.25-1.46 6.11-3.44 9.93-3a9.495 9.495 0 0 1 6.59 4.19l4-11.28.25-.06Z" fill="#26417F"/><path d="M205.72 97.38v.23l-.23-.19v-.07l.23.03ZM205.2 64.06l.19.35a1.521 1.521 0 0 1-.34-.15l.12-.22.03.02ZM200.11 134.14h.25v.46c-.11-.14-.18-.3-.25-.46Z" fill="#26417F"/><path d="M200.11 134.14c.07.16.14.32.22.48-.58 6.25-7.52 42.36-7.59 42.73v.07h-.06l-27.77 11.86.53 20.18h-.25l-.48-17.46h.17v-.25h-.18l-.07-2.59h.08l27.79-11.87c.35-1.85 7.4-38.61 7.61-43.15ZM198.85 120.1v.1h-.25a.906.906 0 0 1 .06-.16l.19.06ZM197.76 127.52s0 .09.08.22l-.25-.06v-.06l.17-.1ZM191 98.09l.23.09-.35.23.12-.32ZM165.419 209.483l-.25.01.01.249.25-.01-.01-.249Z" fill="#26417F"/><path d="M165.17 209.5v.25l-3.58.11-5.29 9.74c0 .59-.33 7.59-3 7.59h-.05l-3.3.11h-.12v-.12l-1.07-35 12.23-.38v.25h.13l.53 17.53 3.52-.08Zm-3.77.2-.54-17.61-11.85.36 1.06 34.55 3.18-.1c2.5 0 2.77-7.31 2.77-7.38v-.06l5.38-9.76Z" fill="#26417F"/><path d="m164.71 191.97.46 17.53-3.53.11-.53-17.53 3.6-.11Z" fill="#FFDFD4"/><path d="M164.88 191.72v.25h-.17l-.01-.24.18-.01ZM164.7 191.73l.01.24-3.6.11-.01-.25 3.6-.1Z" fill="#26417F"/><path d="m160.86 192.09.54 17.61-5.33 9.8v.06c0 .07-.27 7.38-2.77 7.38l-3.18.1-1.12-34.59 11.86-.36Z" fill="#FBC623"/><path d="m161.1 191.83.01.25h-.13v-.25h.12Z" fill="#26417F"/><path d="M105.92 112.08v15.22s15.45-3.94 21.32-3.94c5.87 0 13.6 2.85 27.9 2.85 11.24 0 12.3-2.76 12.3-2.76v-14.33a26.915 26.915 0 0 1-20.44 3.27c-12-2.74-26.36-3.27-33.71-1-5.29 1.34-7.37.69-7.37.69Z" fill="#61D3BA"/><path d="M105.92 134.07v15.23s15.45-4 21.32-4c5.87 0 13.6 2.86 27.9 2.86 11.24 0 12.3-2.76 12.3-2.76v-14.34a26.905 26.905 0 0 1-20.44 3.33c-12-2.75-26.36-3.28-33.71-.95-5.29 1.28-7.37.63-7.37.63Z" fill="#E0E2E3"/><path d="M105 84.27s8-5.68 10.41-5.85c2.92-.81 11 1.08 20.63 4.25 2.38.65 10.08 2.07 12.87 1.69 1.78-.22 14.94-6.37 15-4.19.06 2.18-11 7.65-15 7.27-3.89-.55-8.57-1-6.9-5.83s9.15-10.4 10.66-10.56c0-.8-1.05-4.94-2.28-5.78-1.47.23-12.84 8.48-13 14.77-.73 5-1.6 8.59 4.44 11.16 6.04 2.57 20.93-.24 24.07-3.58 1.44-1 7.39-8.4-2.4-11.34-8.82-2.23-14.88 3-18.25 3.54-1.6.06-6.12.23-7.86.22-1.67-1-11.42-5-11.87-5.72-1.3-.65-5.78-3.59-11.19-3.88-3 .7-9 4.25-9.7 5.9a72.414 72.414 0 0 0 .37 7.93ZM87.72 167l-5.1 10 5.95 3.45 4.09-10.21-4.94-3.24Z" fill="#FBC623"/><path d="m108.26 173.84-2.98 10.83 6.53 2.17 1.94-10.83-5.49-2.17Z" stroke="#61D3BA" stroke-miterlimit="10"/><path d="M83.78 73.07 80 80.92s7.08 2.77 9.25 3.47c2.45-4.06 3.37-6 3.37-6s-3.72-2.11-8.84-5.32Z" fill="#4F87FD"/></svg>